<svg width="1294" height="126" viewBox="0 0 1294 126" fill="none" xmlns="http://www.w3.org/2000/svg">
<mask id="path-1-outside-1_495_330" maskUnits="userSpaceOnUse" x="0" y="0.332031" width="1294" height="126" fill="black">
<rect fill="white" y="0.332031" width="1294" height="126"/>
<path d="M94.6736 122.332L82.3218 89.5585H27.1503L14.6338 122.332H2.44666L48.3954 4.0839H61.9001L107.684 122.332H94.6736ZM54.8184 17.2592L30.9382 79.5124H78.3692L54.8184 17.2592ZM137.882 122.332H125.53V4.0839H167.691C192.724 4.0839 208.37 17.0945 208.37 39.8218C208.37 57.6085 196.677 70.9484 178.066 74.0776L211.499 122.332H196.677L164.891 75.5598H137.882V122.332ZM137.882 14.4594V65.1843H166.703C184.819 65.1843 196.018 56.2909 196.018 39.8218C196.018 23.3528 184.819 14.4594 166.703 14.4594H137.882ZM269.489 122.332H257.302V15.1182H217.612V4.0839H309.18V15.1182H269.489V122.332ZM396.746 111.627V122.332H325.765V4.0839H395.594V14.7888H338.116V55.9616H390.653V66.6665H338.116V111.627H396.746ZM474.038 122.332L431.218 22.0352V122.332H419.69V4.0839H435.665L479.473 107.18L523.61 4.0839H539.42V122.332H528.057V22.0352L484.908 122.332H474.038ZM612.816 122.332H600.464V4.0839H612.816V61.067L668.811 4.0839H683.139L625.497 63.0433L684.786 122.332H668.811L612.816 66.8312V122.332ZM745.592 78.0302V122.332H733.24V78.0302L690.255 4.0839H703.76L739.827 66.5018L776.059 4.0839H788.905L745.592 78.0302ZM880.965 89.5585C880.965 108.333 865.649 123.979 838.145 123.979C810.642 123.979 794.502 108.663 793.349 86.2647H805.866C807.019 103.063 817.559 113.933 837.981 113.933C854.779 113.933 867.954 105.369 867.954 91.2054C867.954 79.0183 861.037 73.4188 844.239 69.9603L829.252 66.9959C813.606 63.8667 797.137 56.6203 797.137 36.034C797.137 17.0945 813.771 2.43699 837.322 2.43699C860.379 2.43699 878.165 16.9298 879.483 39.4925H866.802C865.978 23.8468 854.45 12.4831 837.487 12.4831C819.371 12.4831 809.654 23.5174 809.654 35.3752C809.654 49.3739 821.511 53.6559 834.687 56.2909L849.674 59.4201C869.601 63.5373 880.965 71.7719 880.965 89.5585ZM940.84 78.0302V122.332H928.489V78.0302L885.504 4.0839H899.009L935.076 66.5018L971.308 4.0839H984.154L940.84 78.0302ZM1066.69 122.332H999.164V4.0839H1011.52V111.298H1066.69V122.332ZM1128.1 124.802C1093.85 124.802 1068.48 97.4637 1068.48 63.0433C1068.48 28.6229 1093.85 1.61354 1128.1 1.61354C1162.36 1.61354 1187.89 28.6229 1187.89 63.0433C1187.89 97.4637 1162.36 124.802 1128.1 124.802ZM1128.1 113.768C1156.1 113.768 1175.04 91.3701 1175.04 63.0433C1175.04 34.7164 1156.1 12.6478 1128.1 12.6478C1100.27 12.6478 1081.17 34.7164 1081.17 63.0433C1081.17 91.3701 1100.27 113.768 1128.1 113.768ZM1292.27 4.0839L1247.97 122.332H1234.46L1190.33 4.0839H1203.17L1241.38 108.169L1279.92 4.0839H1292.27Z"/>
</mask>
<path d="M94.6736 122.332L93.7379 122.685L93.9818 123.332H94.6736V122.332ZM82.3218 89.5585L83.2575 89.2059L83.0136 88.5585H82.3218V89.5585ZM27.1503 89.5585V88.5585H26.4618L26.2161 89.2017L27.1503 89.5585ZM14.6338 122.332V123.332H15.3223L15.568 122.689L14.6338 122.332ZM2.44666 122.332L1.51455 121.97L0.985233 123.332H2.44666V122.332ZM48.3954 4.0839V3.0839H47.7112L47.4633 3.7217L48.3954 4.0839ZM61.9001 4.0839L62.8326 3.72283L62.5853 3.0839H61.9001V4.0839ZM107.684 122.332V123.332H109.144L108.617 121.971L107.684 122.332ZM54.8184 17.2592L55.7537 16.9054L54.8249 14.4502L53.8847 16.901L54.8184 17.2592ZM30.9382 79.5124L30.0045 79.1542L29.4835 80.5124H30.9382V79.5124ZM78.3692 79.5124V80.5124H79.8167L79.3045 79.1585L78.3692 79.5124ZM95.6094 121.979L83.2575 89.2059L81.386 89.9112L93.7379 122.685L95.6094 121.979ZM82.3218 88.5585H27.1503V90.5585H82.3218V88.5585ZM26.2161 89.2017L13.6996 121.975L15.568 122.689L28.0845 89.9153L26.2161 89.2017ZM14.6338 121.332H2.44666V123.332H14.6338V121.332ZM3.37876 122.694L49.3275 4.4461L47.4633 3.7217L1.51455 121.97L3.37876 122.694ZM48.3954 5.0839H61.9001V3.0839H48.3954V5.0839ZM60.9676 4.44497L106.752 122.693L108.617 121.971L62.8326 3.72283L60.9676 4.44497ZM107.684 121.332H94.6736V123.332H107.684V121.332ZM53.8847 16.901L30.0045 79.1542L31.8719 79.8705L55.7521 17.6173L53.8847 16.901ZM30.9382 80.5124H78.3692V78.5124H30.9382V80.5124ZM79.3045 79.1585L55.7537 16.9054L53.8831 17.613L77.4339 79.8662L79.3045 79.1585ZM137.882 122.332V123.332H138.882V122.332H137.882ZM125.53 122.332H124.53V123.332H125.53V122.332ZM125.53 4.0839V3.0839H124.53V4.0839H125.53ZM178.066 74.0776L177.901 73.0914L176.348 73.3525L177.244 74.6471L178.066 74.0776ZM211.499 122.332V123.332H213.408L212.321 121.763L211.499 122.332ZM196.677 122.332L195.849 122.894L196.147 123.332H196.677V122.332ZM164.891 75.5598L165.718 74.9977L165.421 74.5598H164.891V75.5598ZM137.882 75.5598V74.5598H136.882V75.5598H137.882ZM137.882 14.4594V13.4594H136.882V14.4594H137.882ZM137.882 65.1843H136.882V66.1843H137.882V65.1843ZM137.882 121.332H125.53V123.332H137.882V121.332ZM126.53 122.332V4.0839H124.53V122.332H126.53ZM125.53 5.0839H167.691V3.0839H125.53V5.0839ZM167.691 5.0839C180.044 5.0839 189.955 8.29406 196.763 14.1862C203.552 20.0616 207.37 28.7023 207.37 39.8218H209.37C209.37 28.214 205.365 18.9857 198.072 12.674C190.799 6.37903 180.371 3.0839 167.691 3.0839V5.0839ZM207.37 39.8218C207.37 57.0842 196.066 70.0371 177.901 73.0914L178.232 75.0637C197.287 71.8598 209.37 58.1328 209.37 39.8218H207.37ZM177.244 74.6471L210.677 122.902L212.321 121.763L178.888 73.5081L177.244 74.6471ZM211.499 121.332H196.677V123.332H211.499V121.332ZM197.504 121.77L165.718 74.9977L164.064 76.1219L195.849 122.894L197.504 121.77ZM164.891 74.5598H137.882V76.5598H164.891V74.5598ZM136.882 75.5598V122.332H138.882V75.5598H136.882ZM136.882 14.4594V65.1843H138.882V14.4594H136.882ZM137.882 66.1843H166.703V64.1843H137.882V66.1843ZM166.703 66.1843C175.911 66.1843 183.498 63.9249 188.799 59.4426C194.125 54.9394 197.018 48.2987 197.018 39.8218H195.018C195.018 47.8141 192.311 53.8546 187.508 57.9153C182.681 61.9969 175.611 64.1843 166.703 64.1843V66.1843ZM197.018 39.8218C197.018 31.345 194.125 24.7042 188.799 20.2011C183.498 15.7188 175.911 13.4594 166.703 13.4594V15.4594C175.611 15.4594 182.681 17.6468 187.508 21.7284C192.311 25.7891 195.018 31.8296 195.018 39.8218H197.018ZM166.703 13.4594H137.882V15.4594H166.703V13.4594ZM269.489 122.332V123.332H270.489V122.332H269.489ZM257.302 122.332H256.302V123.332H257.302V122.332ZM257.302 15.1182H258.302V14.1182H257.302V15.1182ZM217.612 15.1182H216.612V16.1182H217.612V15.1182ZM217.612 4.0839V3.0839H216.612V4.0839H217.612ZM309.18 4.0839H310.18V3.0839H309.18V4.0839ZM309.18 15.1182V16.1182H310.18V15.1182H309.18ZM269.489 15.1182V14.1182H268.489V15.1182H269.489ZM269.489 121.332H257.302V123.332H269.489V121.332ZM258.302 122.332V15.1182H256.302V122.332H258.302ZM257.302 14.1182H217.612V16.1182H257.302V14.1182ZM218.612 15.1182V4.0839H216.612V15.1182H218.612ZM217.612 5.0839H309.18V3.0839H217.612V5.0839ZM308.18 4.0839V15.1182H310.18V4.0839H308.18ZM309.18 14.1182H269.489V16.1182H309.18V14.1182ZM268.489 15.1182V122.332H270.489V15.1182H268.489ZM396.746 111.627H397.746V110.627H396.746V111.627ZM396.746 122.332V123.332H397.746V122.332H396.746ZM325.765 122.332H324.765V123.332H325.765V122.332ZM325.765 4.0839V3.0839H324.765V4.0839H325.765ZM395.594 4.0839H396.594V3.0839H395.594V4.0839ZM395.594 14.7888V15.7888H396.594V14.7888H395.594ZM338.116 14.7888V13.7888H337.116V14.7888H338.116ZM338.116 55.9616H337.116V56.9616H338.116V55.9616ZM390.653 55.9616H391.653V54.9616H390.653V55.9616ZM390.653 66.6665V67.6665H391.653V66.6665H390.653ZM338.116 66.6665V65.6665H337.116V66.6665H338.116ZM338.116 111.627H337.116V112.627H338.116V111.627ZM395.746 111.627V122.332H397.746V111.627H395.746ZM396.746 121.332H325.765V123.332H396.746V121.332ZM326.765 122.332V4.0839H324.765V122.332H326.765ZM325.765 5.0839H395.594V3.0839H325.765V5.0839ZM394.594 4.0839V14.7888H396.594V4.0839H394.594ZM395.594 13.7888H338.116V15.7888H395.594V13.7888ZM337.116 14.7888V55.9616H339.116V14.7888H337.116ZM338.116 56.9616H390.653V54.9616H338.116V56.9616ZM389.653 55.9616V66.6665H391.653V55.9616H389.653ZM390.653 65.6665H338.116V67.6665H390.653V65.6665ZM337.116 66.6665V111.627H339.116V66.6665H337.116ZM338.116 112.627H396.746V110.627H338.116V112.627ZM474.038 122.332L473.118 122.725L473.378 123.332H474.038V122.332ZM431.218 22.0352L432.138 21.6426L430.218 22.0352H431.218ZM431.218 122.332V123.332H432.218V122.332H431.218ZM419.69 122.332H418.69V123.332H419.69V122.332ZM419.69 4.0839V3.0839H418.69V4.0839H419.69ZM435.665 4.0839L436.585 3.69282L436.327 3.0839H435.665V4.0839ZM479.473 107.18L478.552 107.572L479.469 109.729L480.392 107.574L479.473 107.18ZM523.61 4.0839V3.0839H522.95L522.691 3.69033L523.61 4.0839ZM539.42 4.0839H540.42V3.0839H539.42V4.0839ZM539.42 122.332V123.332H540.42V122.332H539.42ZM528.057 122.332H527.057V123.332H528.057V122.332ZM528.057 22.0352H529.057L527.138 21.64L528.057 22.0352ZM484.908 122.332V123.332H485.566L485.826 122.727L484.908 122.332ZM474.958 121.939L432.138 21.6426L430.299 22.4279L473.118 122.725L474.958 121.939ZM430.218 22.0352V122.332H432.218V22.0352H430.218ZM431.218 121.332H419.69V123.332H431.218V121.332ZM420.69 122.332V4.0839H418.69V122.332H420.69ZM419.69 5.0839H435.665V3.0839H419.69V5.0839ZM434.745 4.47498L478.552 107.572L480.393 106.789L436.585 3.69282L434.745 4.47498ZM480.392 107.574L524.529 4.47746L522.691 3.69033L478.554 106.787L480.392 107.574ZM523.61 5.0839H539.42V3.0839H523.61V5.0839ZM538.42 4.0839V122.332H540.42V4.0839H538.42ZM539.42 121.332H528.057V123.332H539.42V121.332ZM529.057 122.332V22.0352H527.057V122.332H529.057ZM527.138 21.64L483.989 121.937L485.826 122.727L528.975 22.4304L527.138 21.64ZM484.908 121.332H474.038V123.332H484.908V121.332ZM612.816 122.332V123.332H613.816V122.332H612.816ZM600.464 122.332H599.464V123.332H600.464V122.332ZM600.464 4.0839V3.0839H599.464V4.0839H600.464ZM612.816 4.0839H613.816V3.0839H612.816V4.0839ZM612.816 61.067H611.816V63.5114L613.529 61.7679L612.816 61.067ZM668.811 4.0839V3.0839H668.391L668.098 3.383L668.811 4.0839ZM683.139 4.0839L683.854 4.78297L685.515 3.0839H683.139V4.0839ZM625.497 63.0433L624.782 62.3442L624.091 63.0512L624.79 63.7504L625.497 63.0433ZM684.786 122.332V123.332H687.2L685.493 121.625L684.786 122.332ZM668.811 122.332L668.107 123.042L668.399 123.332H668.811V122.332ZM612.816 66.8312L613.52 66.1209L611.816 64.432V66.8312H612.816ZM612.816 121.332H600.464V123.332H612.816V121.332ZM601.464 122.332V4.0839H599.464V122.332H601.464ZM600.464 5.0839H612.816V3.0839H600.464V5.0839ZM611.816 4.0839V61.067H613.816V4.0839H611.816ZM613.529 61.7679L669.524 4.78479L668.098 3.383L612.103 60.3661L613.529 61.7679ZM668.811 5.0839H683.139V3.0839H668.811V5.0839ZM682.424 3.38483L624.782 62.3442L626.212 63.7423L683.854 4.78297L682.424 3.38483ZM624.79 63.7504L684.079 123.039L685.493 121.625L626.204 62.3362L624.79 63.7504ZM684.786 121.332H668.811V123.332H684.786V121.332ZM669.515 121.622L613.52 66.1209L612.112 67.5414L668.107 123.042L669.515 121.622ZM611.816 66.8312V122.332H613.816V66.8312H611.816ZM745.592 78.0302L744.729 77.5247L744.592 77.7588V78.0302H745.592ZM745.592 122.332V123.332H746.592V122.332H745.592ZM733.24 122.332H732.24V123.332H733.24V122.332ZM733.24 78.0302H734.24V77.7606L734.104 77.5276L733.24 78.0302ZM690.255 4.0839V3.0839H688.517L689.391 4.58645L690.255 4.0839ZM703.76 4.0839L704.626 3.58358L704.337 3.0839H703.76V4.0839ZM739.827 66.5018L738.962 67.0021L739.825 68.4971L740.692 67.0038L739.827 66.5018ZM776.059 4.0839V3.0839H775.484L775.195 3.58187L776.059 4.0839ZM788.905 4.0839L789.768 4.58932L790.65 3.0839H788.905V4.0839ZM744.592 78.0302V122.332H746.592V78.0302H744.592ZM745.592 121.332H733.24V123.332H745.592V121.332ZM734.24 122.332V78.0302H732.24V122.332H734.24ZM734.104 77.5276L691.12 3.58135L689.391 4.58645L732.375 78.5327L734.104 77.5276ZM690.255 5.0839H703.76V3.0839H690.255V5.0839ZM702.894 4.58422L738.962 67.0021L740.693 66.0015L704.626 3.58358L702.894 4.58422ZM740.692 67.0038L776.924 4.58592L775.195 3.58187L738.963 65.9998L740.692 67.0038ZM776.059 5.0839H788.905V3.0839H776.059V5.0839ZM788.042 3.57848L744.729 77.5247L746.454 78.5356L789.768 4.58932L788.042 3.57848ZM793.349 86.2647V85.2647H792.297L792.351 86.3161L793.349 86.2647ZM805.866 86.2647L806.864 86.1962L806.8 85.2647H805.866V86.2647ZM844.239 69.9603L844.441 68.9808L844.433 68.9793L844.239 69.9603ZM829.252 66.9959L829.056 67.9764L829.058 67.9769L829.252 66.9959ZM879.483 39.4925V40.4925H880.543L880.481 39.4342L879.483 39.4925ZM866.802 39.4925L865.803 39.545L865.853 40.4925H866.802V39.4925ZM834.687 56.2909L834.891 55.312L834.883 55.3104L834.687 56.2909ZM849.674 59.4201L849.469 60.399L849.471 60.3994L849.674 59.4201ZM879.965 89.5585C879.965 98.66 876.259 106.987 869.216 113.052C862.167 119.123 851.71 122.979 838.145 122.979V124.979C852.084 124.979 863.037 121.013 870.521 114.567C878.013 108.115 881.965 99.2318 881.965 89.5585H879.965ZM838.145 122.979C824.577 122.979 813.918 119.203 806.522 112.767C799.134 106.337 794.912 97.175 794.348 86.2133L792.351 86.3161C792.939 97.7524 797.364 107.447 805.209 114.275C813.048 121.097 824.21 124.979 838.145 124.979V122.979ZM793.349 87.2647H805.866V85.2647H793.349V87.2647ZM804.868 86.3332C805.458 94.9269 808.46 102.111 814.027 107.14C819.591 112.167 827.595 114.933 837.981 114.933V112.933C827.944 112.933 820.468 110.264 815.368 105.656C810.271 101.051 807.427 94.401 806.864 86.1962L804.868 86.3332ZM837.981 114.933C846.537 114.933 854.251 112.753 859.854 108.69C865.482 104.609 868.954 98.6373 868.954 91.2054H866.954C866.954 97.937 863.839 103.329 858.68 107.071C853.496 110.83 846.223 112.933 837.981 112.933V114.933ZM868.954 91.2054C868.954 84.8968 867.15 80.1464 863.055 76.5576C859.024 73.0253 852.882 70.7189 844.441 68.9808L844.037 70.9398C852.394 72.6602 858.11 74.8828 861.737 78.0617C865.3 81.1841 866.954 85.3269 866.954 91.2054H868.954ZM844.433 68.9793L829.446 66.0149L829.058 67.9769L844.045 70.9413L844.433 68.9793ZM829.448 66.0153C821.681 64.4618 813.835 61.907 807.946 57.2753C802.106 52.683 798.137 46.0111 798.137 36.034H796.137C796.137 46.6432 800.403 53.8876 806.709 58.8474C812.966 63.7678 821.177 66.4007 829.056 67.9764L829.448 66.0153ZM798.137 36.034C798.137 17.7937 814.164 3.43699 837.322 3.43699V1.43699C813.378 1.43699 796.137 16.3953 796.137 36.034H798.137ZM837.322 3.43699C859.935 3.43699 877.203 17.599 878.484 39.5508L880.481 39.4342C879.128 16.2606 860.822 1.43699 837.322 1.43699V3.43699ZM879.483 38.4925H866.802V40.4925H879.483V38.4925ZM867.8 39.4399C866.948 23.2542 854.973 11.4831 837.487 11.4831V13.4831C853.927 13.4831 865.008 24.4394 865.803 39.545L867.8 39.4399ZM837.487 11.4831C818.916 11.4831 808.654 22.8721 808.654 35.3752H810.654C810.654 24.1628 819.825 13.4831 837.487 13.4831V11.4831ZM808.654 35.3752C808.654 42.7262 811.799 47.5965 816.666 50.9202C821.457 54.193 827.891 55.9516 834.491 57.2715L834.883 55.3104C828.307 53.9952 822.225 52.2953 817.794 49.2687C813.437 46.293 810.654 42.0229 810.654 35.3752H808.654ZM834.482 57.2698L849.469 60.399L849.878 58.4412L834.891 55.3121L834.482 57.2698ZM849.471 60.3994C859.368 62.4441 866.986 65.4847 872.123 70.1067C877.215 74.6874 879.965 80.9068 879.965 89.5585H881.965C881.965 80.4236 879.033 73.6325 873.461 68.6199C867.935 63.6487 859.907 60.5133 849.876 58.4408L849.471 60.3994ZM940.84 78.0302L939.978 77.5247L939.84 77.7588V78.0302H940.84ZM940.84 122.332V123.332H941.84V122.332H940.84ZM928.489 122.332H927.489V123.332H928.489V122.332ZM928.489 78.0302H929.489V77.7606L929.353 77.5276L928.489 78.0302ZM885.504 4.0839V3.0839H883.766L884.64 4.58645L885.504 4.0839ZM899.009 4.0839L899.875 3.58358L899.586 3.0839H899.009V4.0839ZM935.076 66.5018L934.21 67.0021L935.074 68.4971L935.941 67.0038L935.076 66.5018ZM971.308 4.0839V3.0839H970.732L970.443 3.58187L971.308 4.0839ZM984.154 4.0839L985.017 4.58932L985.899 3.0839H984.154V4.0839ZM939.84 78.0302V122.332H941.84V78.0302H939.84ZM940.84 121.332H928.489V123.332H940.84V121.332ZM929.489 122.332V78.0302H927.489V122.332H929.489ZM929.353 77.5276L886.369 3.58135L884.64 4.58645L927.624 78.5327L929.353 77.5276ZM885.504 5.0839H899.009V3.0839H885.504V5.0839ZM898.143 4.58422L934.21 67.0021L935.942 66.0015L899.875 3.58358L898.143 4.58422ZM935.941 67.0038L972.173 4.58592L970.443 3.58187L934.211 65.9998L935.941 67.0038ZM971.308 5.0839H984.154V3.0839H971.308V5.0839ZM983.291 3.57848L939.978 77.5247L941.703 78.5356L985.017 4.58932L983.291 3.57848ZM1066.69 122.332V123.332H1067.69V122.332H1066.69ZM999.164 122.332H998.164V123.332H999.164V122.332ZM999.164 4.0839V3.0839H998.164V4.0839H999.164ZM1011.52 4.0839H1012.52V3.0839H1011.52V4.0839ZM1011.52 111.298H1010.52V112.298H1011.52V111.298ZM1066.69 111.298H1067.69V110.298H1066.69V111.298ZM1066.69 121.332H999.164V123.332H1066.69V121.332ZM1000.16 122.332V4.0839H998.164V122.332H1000.16ZM999.164 5.0839H1011.52V3.0839H999.164V5.0839ZM1010.52 4.0839V111.298H1012.52V4.0839H1010.52ZM1011.52 112.298H1066.69V110.298H1011.52V112.298ZM1065.69 111.298V122.332H1067.69V111.298H1065.69ZM1128.1 123.802C1094.44 123.802 1069.48 96.9565 1069.48 63.0433H1067.48C1067.48 97.9709 1093.25 125.802 1128.1 125.802V123.802ZM1069.48 63.0433C1069.48 29.1372 1094.44 2.61354 1128.1 2.61354V0.613537C1093.26 0.613537 1067.48 28.1086 1067.48 63.0433H1069.48ZM1128.1 2.61354C1161.77 2.61354 1186.89 29.1409 1186.89 63.0433H1188.89C1188.89 28.1048 1162.94 0.613537 1128.1 0.613537V2.61354ZM1186.89 63.0433C1186.89 96.9528 1161.77 123.802 1128.1 123.802V125.802C1162.95 125.802 1188.89 97.9746 1188.89 63.0433H1186.89ZM1128.1 114.768C1156.75 114.768 1176.04 91.8217 1176.04 63.0433H1174.04C1174.04 90.9186 1155.45 112.768 1128.1 112.768V114.768ZM1176.04 63.0433C1176.04 34.256 1156.74 11.6478 1128.1 11.6478V13.6478C1155.46 13.6478 1174.04 35.1769 1174.04 63.0433H1176.04ZM1128.1 11.6478C1099.63 11.6478 1080.17 34.2535 1080.17 63.0433H1082.17C1082.17 35.1793 1100.91 13.6478 1128.1 13.6478V11.6478ZM1080.17 63.0433C1080.17 91.8241 1099.62 114.768 1128.1 114.768V112.768C1100.92 112.768 1082.17 90.9161 1082.17 63.0433H1080.17ZM1292.27 4.0839L1293.21 4.43474L1293.71 3.0839H1292.27V4.0839ZM1247.97 122.332V123.332H1248.66L1248.9 122.683L1247.97 122.332ZM1234.46 122.332L1233.53 122.682L1233.77 123.332H1234.46V122.332ZM1190.33 4.0839V3.0839H1188.88L1189.39 4.43359L1190.33 4.0839ZM1203.17 4.0839L1204.11 3.7393L1203.87 3.0839H1203.17V4.0839ZM1241.38 108.169L1240.44 108.513L1241.38 111.06L1242.32 108.516L1241.38 108.169ZM1279.92 4.0839V3.0839H1279.22L1278.98 3.73668L1279.92 4.0839ZM1291.33 3.73306L1247.03 121.981L1248.9 122.683L1293.21 4.43474L1291.33 3.73306ZM1247.97 121.332H1234.46V123.332H1247.97V121.332ZM1235.4 121.982L1191.26 3.73421L1189.39 4.43359L1233.53 122.682L1235.4 121.982ZM1190.33 5.0839H1203.17V3.0839H1190.33V5.0839ZM1202.23 4.4285L1240.44 108.513L1242.32 107.824L1204.11 3.7393L1202.23 4.4285ZM1242.32 108.516L1280.86 4.43112L1278.98 3.73668L1240.44 107.821L1242.32 108.516ZM1279.92 5.0839H1292.27V3.0839H1279.92V5.0839Z" fill="#DAE5D0" mask="url(#path-1-outside-1_495_330)"/>
</svg>
