<svg width="197" height="20" viewBox="0 0 197 20" fill="none" xmlns="http://www.w3.org/2000/svg">
<path d="M14.675 19L12.8 14.025H4.425L2.525 19H0.675L7.65 1.05H9.7L16.65 19H14.675ZM8.625 3.05L5 12.5H12.2L8.625 3.05ZM21.234 19H19.359V1.05H25.759C29.559 1.05 31.934 3.025 31.934 6.475C31.934 9.175 30.159 11.2 27.334 11.675L32.409 19H30.159L25.334 11.9H21.234V19ZM21.234 2.625V10.325H25.609C28.359 10.325 30.059 8.975 30.059 6.475C30.059 3.975 28.359 2.625 25.609 2.625H21.234ZM41.2119 19H39.3619V2.725H33.3369V1.05H47.2369V2.725H41.2119V19ZM60.5295 17.375V19H49.7545V1.05H60.3545V2.675H51.6295V8.925H59.6045V10.55H51.6295V17.375H60.5295ZM72.2623 19L65.7623 3.775V19H64.0123V1.05H66.4373L73.0873 16.7L79.7873 1.05H82.1873V19H80.4623V3.775L73.9123 19H72.2623ZM93.3287 19H91.4537V1.05H93.3287V9.7L101.829 1.05H104.004L95.2537 10L104.254 19H101.829L93.3287 10.575V19ZM113.484 12.275V19H111.609V12.275L105.084 1.05H107.134L112.609 10.525L118.109 1.05H120.059L113.484 12.275ZM134.034 14.025C134.034 16.875 131.709 19.25 127.534 19.25C123.359 19.25 120.909 16.925 120.734 13.525H122.634C122.809 16.075 124.409 17.725 127.509 17.725C130.059 17.725 132.059 16.425 132.059 14.275C132.059 12.425 131.009 11.575 128.459 11.05L126.184 10.6C123.809 10.125 121.309 9.025 121.309 5.9C121.309 3.025 123.834 0.799999 127.409 0.799999C130.909 0.799999 133.609 3 133.809 6.425H131.884C131.759 4.05 130.009 2.325 127.434 2.325C124.684 2.325 123.209 4 123.209 5.8C123.209 7.925 125.009 8.575 127.009 8.975L129.284 9.45C132.309 10.075 134.034 11.325 134.034 14.025ZM143.123 12.275V19H141.248V12.275L134.723 1.05H136.773L142.248 10.525L147.748 1.05H149.698L143.123 12.275ZM162.226 19H151.976V1.05H153.851V17.325H162.226V19ZM171.549 19.375C166.349 19.375 162.499 15.225 162.499 10C162.499 4.775 166.349 0.674999 171.549 0.674999C176.749 0.674999 180.624 4.775 180.624 10C180.624 15.225 176.749 19.375 171.549 19.375ZM171.549 17.7C175.799 17.7 178.674 14.3 178.674 10C178.674 5.7 175.799 2.35 171.549 2.35C167.324 2.35 164.424 5.7 164.424 10C164.424 14.3 167.324 17.7 171.549 17.7ZM196.469 1.05L189.744 19H187.694L180.994 1.05H182.944L188.744 16.85L194.594 1.05H196.469Z" fill="#DAE5D0"/>
</svg>
